<svg xmlns="http://www.w3.org/2000/svg" viewBox="0 0 320 512" fill="#10e898" aria-hidden="true">
  <path d="M160 0c17.7 0 32 14.3 32 32V67.7c1.6.2 3.1.4 4.7.7.4.1.7.1 1.1.2l48 8.8c17.4 3.2 28.9 19.5 25.7 36.9s-19.5 28.9-36.9 25.7l-47.5-8.7c-31.3-4.6-58.9-1.5-78.3 6.2s-27.2 18.3-29 36.5c-1.8 18.1 3.6 34.7 15.8 42.9 12.2 8.2 30.3 13.9 53.6 17.6 35.7 5.5 62.7 17.1 80.1 34.4 17.4 17.3 26.2 39.9 26.2 67.2 0 18.5-4.8 35.2-14.3 49.5-9.5 14.3-22.5 25.4-39.2 33.2-16.7 7.8-36.1 13.1-58.2 15.8V448c0 17.7-14.3 32-32 32s-32-14.3-32-32V420.3c-1.6-.2-3.1-.4-4.7-.7-.4-.1-.7-.1-1.1-.2l-48-8.8c-17.4-3.2-28.9-19.5-25.7-36.9s19.5-28.9 36.9-25.7l47.5 8.7c31.3 4.6 58.9 1.5 78.3-6.2s27.2-18.3 29-36.5c1.8-18.1-3.6-34.7-15.8-42.9-12.2-8.2-30.3-13.9-53.6-17.6-35.7-5.5-62.7-17.1-80.1-34.4-17.4-17.3-26.2-39.9-26.2-67.2 0-18.5 4.8-35.2 14.3-49.5 9.5-14.3 22.5-25.4 39.2-33.2 16.7-7.8 36.1-13.1 58.2-15.8V32c0-17.7 14.3-32 32-32z"/>
</svg>
